<svg xmlns="http://www.w3.org/2000/svg" xmlns:xlink="http://www.w3.org/1999/xlink" width="1920" zoomAndPan="magnify" viewBox="0 0 1440 525.000007" height="700" preserveAspectRatio="xMidYMid meet" version="1.0"><defs><g/><clipPath id="3671455b30"><path d="M 13 94.886719 L 395 94.886719 L 395 428.75 L 13 428.75 Z M 13 94.886719 " clip-rule="nonzero"/></clipPath><clipPath id="8777bccef4"><rect x="0" width="990" y="0" height="377"/></clipPath></defs><g clip-path="url(#3671455b30)"><path fill="#000000" d="M 315.300781 148.414062 C 308.359375 141.226562 300.785156 134.640625 292.710938 128.765625 C 289.632812 126.5 286.234375 124.234375 282.410156 121.828125 C 254.230469 104.195312 221.695312 94.886719 188.3125 94.886719 C 91.667969 94.886719 13.039062 172.132812 13.039062 267.078125 C 13.039062 337.140625 55.664062 399.695312 121.652344 426.351562 C 121.652344 426.351562 126.855469 428.441406 130.042969 429.113281 L 180.136719 342.34375 L 250.230469 403.554688 L 394.597656 148.414062 Z M 288.324219 251.785156 L 239.929688 337.316406 L 198.542969 304.394531 L 218.792969 268 L 227.398438 271.964844 C 219.429688 260.992188 210.722656 238.261719 210.652344 224.847656 L 121.085938 379.976562 C 80.195312 356.789062 54.636719 314.164062 54.636719 267.042969 C 54.601562 195.074219 114.570312 136.449219 188.3125 136.449219 C 213.910156 136.449219 238.796875 143.5625 260.320312 157.050781 C 263.328125 158.929688 265.914062 160.664062 268.214844 162.363281 C 276.394531 168.308594 283.863281 175.210938 290.445312 182.824219 L 296.675781 190.011719 L 347.160156 190.011719 L 304.21875 223.820312 L 288.359375 251.855469 L 288.359375 251.785156 Z M 288.324219 251.785156 " fill-opacity="1" fill-rule="nonzero"/></g><g transform="matrix(1, 0, 0, 1, 437, 73)"><g clip-path="url(#8777bccef4)"><g fill="#000000" fill-opacity="1"><g transform="translate(0.631815, 173.256994)"><g><path d="M 34.96875 -60.796875 L 34.96875 -14.890625 L 106.171875 -14.890625 L 106.171875 0 L 16.140625 0 L 16.140625 -132.71875 L 104.203125 -132.71875 L 104.203125 -117.828125 L 34.96875 -117.828125 L 34.96875 -75.859375 L 97.921875 -75.859375 L 97.921875 -60.796875 Z M 34.96875 -60.796875 "/></g></g></g><g fill="#000000" fill-opacity="1"><g transform="translate(110.568291, 173.256994)"><g><path d="M 60.625 -1.796875 L 97.75 -132.71875 L 116.9375 -132.71875 L 76.9375 0 L 42.859375 0 L 3.046875 -132.71875 L 23.3125 -132.71875 L 60.265625 -1.796875 Z M 60.625 -1.796875 "/></g></g></g><g fill="#000000" fill-opacity="1"><g transform="translate(226.602395, 173.256994)"><g><path d="M 67.96875 1.796875 C 55.65625 1.796875 45.070312 -0.890625 36.21875 -6.265625 C 27.375 -11.648438 20.617188 -19.421875 15.953125 -29.578125 C 11.296875 -39.742188 8.96875 -52.003906 8.96875 -66.359375 C 8.96875 -80.703125 11.296875 -92.953125 15.953125 -103.109375 C 20.617188 -113.273438 27.375 -121.046875 36.21875 -126.421875 C 45.070312 -131.804688 55.65625 -134.5 67.96875 -134.5 C 80.28125 -134.5 90.832031 -131.804688 99.625 -126.421875 C 108.414062 -121.046875 115.140625 -113.273438 119.796875 -103.109375 C 124.460938 -92.953125 126.796875 -80.703125 126.796875 -66.359375 C 126.796875 -52.003906 124.460938 -39.742188 119.796875 -29.578125 C 115.140625 -19.421875 108.414062 -11.648438 99.625 -6.265625 C 90.832031 -0.890625 80.28125 1.796875 67.96875 1.796875 Z M 67.96875 -13.625 C 80.40625 -13.625 90.085938 -18.253906 97.015625 -27.515625 C 103.953125 -36.785156 107.421875 -49.734375 107.421875 -66.359375 C 107.421875 -82.972656 103.953125 -95.910156 97.015625 -105.171875 C 90.085938 -114.441406 80.40625 -119.078125 67.96875 -119.078125 C 55.414062 -119.078125 45.640625 -114.441406 38.640625 -105.171875 C 31.648438 -95.910156 28.15625 -82.972656 28.15625 -66.359375 C 28.15625 -49.734375 31.648438 -36.785156 38.640625 -27.515625 C 45.640625 -18.253906 55.414062 -13.625 67.96875 -13.625 Z M 67.96875 -13.625 "/></g></g></g><g fill="#000000" fill-opacity="1"><g transform="translate(358.597985, 173.256994)"><g><path d="M 34.96875 -132.71875 L 34.96875 -15.421875 L 95.046875 -15.421875 L 95.046875 0 L 16.140625 0 L 16.140625 -132.71875 Z M 34.96875 -132.71875 "/></g></g></g><g fill="#000000" fill-opacity="1"><g transform="translate(453.290344, 173.256994)"><g><path d="M 64.5625 1.796875 C 49.019531 1.796875 36.851562 -2.445312 28.0625 -10.9375 C 19.28125 -19.425781 14.890625 -31.144531 14.890625 -46.09375 L 14.890625 -132.71875 L 33.53125 -132.71875 L 33.53125 -45.015625 C 33.53125 -35.210938 36.3125 -27.53125 41.875 -21.96875 C 47.4375 -16.40625 55.179688 -13.625 65.109375 -13.625 C 75.023438 -13.625 82.765625 -16.40625 88.328125 -21.96875 C 93.890625 -27.53125 96.671875 -35.210938 96.671875 -45.015625 L 96.671875 -132.71875 L 114.421875 -132.71875 L 114.421875 -46.09375 C 114.421875 -31.144531 110.023438 -19.425781 101.234375 -10.9375 C 92.453125 -2.445312 80.226562 1.796875 64.5625 1.796875 Z M 64.5625 1.796875 "/></g></g></g><g fill="#000000" fill-opacity="1"><g transform="translate(578.829602, 173.256994)"><g><path d="M 3.234375 -132.71875 L 102.40625 -132.71875 L 102.40625 -117.828125 L 62.234375 -117.828125 L 62.234375 0 L 43.40625 0 L 43.40625 -117.828125 L 3.234375 -117.828125 Z M 3.234375 -132.71875 "/></g></g></g><g fill="#000000" fill-opacity="1"><g transform="translate(680.695678, 173.256994)"><g><path d="M 34.96875 0 L 16.140625 0 L 16.140625 -132.71875 L 34.96875 -132.71875 Z M 34.96875 0 "/></g></g></g><g fill="#000000" fill-opacity="1"><g transform="translate(728.041672, 173.256994)"><g><path d="M 67.96875 1.796875 C 55.65625 1.796875 45.070312 -0.890625 36.21875 -6.265625 C 27.375 -11.648438 20.617188 -19.421875 15.953125 -29.578125 C 11.296875 -39.742188 8.96875 -52.003906 8.96875 -66.359375 C 8.96875 -80.703125 11.296875 -92.953125 15.953125 -103.109375 C 20.617188 -113.273438 27.375 -121.046875 36.21875 -126.421875 C 45.070312 -131.804688 55.65625 -134.5 67.96875 -134.5 C 80.28125 -134.5 90.832031 -131.804688 99.625 -126.421875 C 108.414062 -121.046875 115.140625 -113.273438 119.796875 -103.109375 C 124.460938 -92.953125 126.796875 -80.703125 126.796875 -66.359375 C 126.796875 -52.003906 124.460938 -39.742188 119.796875 -29.578125 C 115.140625 -19.421875 108.414062 -11.648438 99.625 -6.265625 C 90.832031 -0.890625 80.28125 1.796875 67.96875 1.796875 Z M 67.96875 -13.625 C 80.40625 -13.625 90.085938 -18.253906 97.015625 -27.515625 C 103.953125 -36.785156 107.421875 -49.734375 107.421875 -66.359375 C 107.421875 -82.972656 103.953125 -95.910156 97.015625 -105.171875 C 90.085938 -114.441406 80.40625 -119.078125 67.96875 -119.078125 C 55.414062 -119.078125 45.640625 -114.441406 38.640625 -105.171875 C 31.648438 -95.910156 28.15625 -82.972656 28.15625 -66.359375 C 28.15625 -49.734375 31.648438 -36.785156 38.640625 -27.515625 C 45.640625 -18.253906 55.414062 -13.625 67.96875 -13.625 Z M 67.96875 -13.625 "/></g></g></g><g fill="#000000" fill-opacity="1"><g transform="translate(860.037242, 173.256994)"><g><path d="M 99.890625 -1.796875 L 99.359375 -132.71875 L 117.109375 -132.71875 L 117.109375 0 L 85.015625 0 L 33.890625 -130.921875 L 33.53125 -130.921875 L 34.25 0 L 16.140625 0 L 16.140625 -132.71875 L 48.421875 -132.71875 L 99.53125 -1.796875 Z M 99.890625 -1.796875 "/></g></g></g><g fill="#000000" fill-opacity="1"><g transform="translate(0.612897, 334.286775)"><g><path d="M 59.71875 1.796875 C 44.300781 1.796875 31.957031 -2.382812 22.6875 -10.75 C 13.414062 -19.125 8.242188 -30.84375 7.171875 -45.90625 L 25.828125 -45.90625 C 26.546875 -35.75 29.921875 -27.828125 35.953125 -22.140625 C 41.992188 -16.460938 50.035156 -13.625 60.078125 -13.625 C 70.484375 -13.625 78.582031 -15.6875 84.375 -19.8125 C 90.175781 -23.9375 93.078125 -29.707031 93.078125 -37.125 C 93.078125 -43.21875 91.34375 -47.789062 87.875 -50.84375 C 84.40625 -53.894531 79.921875 -56.109375 74.421875 -57.484375 C 68.921875 -58.859375 63.066406 -60.023438 56.859375 -60.984375 C 51.472656 -61.816406 46.0625 -62.828125 40.625 -64.015625 C 35.1875 -65.210938 30.222656 -66.976562 25.734375 -69.3125 C 21.253906 -71.644531 17.664062 -74.960938 14.96875 -79.265625 C 12.28125 -83.566406 10.9375 -89.1875 10.9375 -96.125 C 10.9375 -108.5625 15.238281 -118.066406 23.84375 -124.640625 C 32.457031 -131.210938 44.414062 -134.5 59.71875 -134.5 C 74.070312 -134.5 85.550781 -130.460938 94.15625 -122.390625 C 102.757812 -114.328125 107.539062 -103.179688 108.5 -88.953125 L 90.03125 -88.953125 C 89.550781 -98.515625 86.5625 -105.925781 81.0625 -111.1875 C 75.5625 -116.445312 68.207031 -119.078125 59 -119.078125 C 49.914062 -119.078125 42.800781 -117.191406 37.65625 -113.421875 C 32.519531 -109.660156 29.953125 -104.316406 29.953125 -97.390625 C 29.953125 -92.242188 31.535156 -88.320312 34.703125 -85.625 C 37.867188 -82.9375 42.050781 -80.992188 47.25 -79.796875 C 52.457031 -78.609375 57.988281 -77.535156 63.84375 -76.578125 C 69.46875 -75.742188 75.148438 -74.664062 80.890625 -73.34375 C 86.628906 -72.03125 91.859375 -70.117188 96.578125 -67.609375 C 101.296875 -65.097656 105.085938 -61.539062 107.953125 -56.9375 C 110.828125 -52.332031 112.265625 -46.265625 112.265625 -38.734375 C 112.265625 -26.066406 107.628906 -16.144531 98.359375 -8.96875 C 89.097656 -1.789062 76.21875 1.796875 59.71875 1.796875 Z M 59.71875 1.796875 "/></g></g></g><g fill="#000000" fill-opacity="1"><g transform="translate(116.826353, 334.286775)"><g><path d="M 3.234375 -132.71875 L 102.40625 -132.71875 L 102.40625 -117.828125 L 62.234375 -117.828125 L 62.234375 0 L 43.40625 0 L 43.40625 -117.828125 L 3.234375 -117.828125 Z M 3.234375 -132.71875 "/></g></g></g><g fill="#000000" fill-opacity="1"><g transform="translate(218.692429, 334.286775)"><g><path d="M 123.03125 0 L 102.765625 0 L 92.359375 -33.359375 L 31.5625 -33.359375 L 21.15625 0 L 1.96875 0 L 46.09375 -132.71875 L 79.265625 -132.71875 Z M 61.875 -130.921875 L 36.234375 -48.421875 L 87.703125 -48.421875 L 62.234375 -130.921875 Z M 61.875 -130.921875 "/></g></g></g><g fill="#000000" fill-opacity="1"><g transform="translate(339.92746, 334.286775)"><g><path d="M 69.578125 -74.78125 L 72.09375 -74.78125 C 85.726562 -74.78125 96.335938 -71.550781 103.921875 -65.09375 C 111.515625 -58.644531 115.3125 -49.679688 115.3125 -38.203125 C 115.3125 -26.242188 111.335938 -16.882812 103.390625 -10.125 C 95.441406 -3.375 84.351562 0 70.125 0 L 16.140625 0 L 16.140625 -132.71875 L 68.875 -132.71875 C 80.34375 -132.71875 89.273438 -130.085938 95.671875 -124.828125 C 102.078125 -119.566406 105.28125 -112.148438 105.28125 -102.578125 C 105.28125 -93.972656 102.140625 -87.25 95.859375 -82.40625 C 89.578125 -77.5625 80.816406 -75.140625 69.578125 -75.140625 Z M 85.90625 -96.3125 C 85.90625 -103 83.867188 -108.253906 79.796875 -112.078125 C 75.734375 -115.910156 70.054688 -117.828125 62.765625 -117.828125 L 34.96875 -117.828125 L 34.96875 -75.140625 L 62.765625 -75.140625 C 70.054688 -75.140625 75.734375 -76.992188 79.796875 -80.703125 C 83.867188 -84.410156 85.90625 -89.613281 85.90625 -96.3125 Z M 34.96875 -14.890625 L 71.015625 -14.890625 C 78.785156 -14.890625 84.882812 -16.953125 89.3125 -21.078125 C 93.738281 -25.203125 95.953125 -30.910156 95.953125 -38.203125 C 95.953125 -45.367188 93.738281 -50.984375 89.3125 -55.046875 C 84.882812 -59.117188 78.785156 -61.15625 71.015625 -61.15625 L 34.96875 -61.15625 Z M 34.96875 -14.890625 "/></g></g></g><g fill="#000000" fill-opacity="1"><g transform="translate(459.010369, 334.286775)"><g><path d="M 34.96875 -132.71875 L 34.96875 -15.421875 L 95.046875 -15.421875 L 95.046875 0 L 16.140625 0 L 16.140625 -132.71875 Z M 34.96875 -132.71875 "/></g></g></g><g fill="#000000" fill-opacity="1"><g transform="translate(553.702764, 334.286775)"><g><path d="M 34.96875 -60.796875 L 34.96875 -14.890625 L 106.171875 -14.890625 L 106.171875 0 L 16.140625 0 L 16.140625 -132.71875 L 104.203125 -132.71875 L 104.203125 -117.828125 L 34.96875 -117.828125 L 34.96875 -75.859375 L 97.921875 -75.859375 L 97.921875 -60.796875 Z M 34.96875 -60.796875 "/></g></g></g><g fill="#000000" fill-opacity="1"><g transform="translate(663.639202, 334.286775)"><g><path d="M 59.71875 1.796875 C 44.300781 1.796875 31.957031 -2.382812 22.6875 -10.75 C 13.414062 -19.125 8.242188 -30.84375 7.171875 -45.90625 L 25.828125 -45.90625 C 26.546875 -35.75 29.921875 -27.828125 35.953125 -22.140625 C 41.992188 -16.460938 50.035156 -13.625 60.078125 -13.625 C 70.484375 -13.625 78.582031 -15.6875 84.375 -19.8125 C 90.175781 -23.9375 93.078125 -29.707031 93.078125 -37.125 C 93.078125 -43.21875 91.34375 -47.789062 87.875 -50.84375 C 84.40625 -53.894531 79.921875 -56.109375 74.421875 -57.484375 C 68.921875 -58.859375 63.066406 -60.023438 56.859375 -60.984375 C 51.472656 -61.816406 46.0625 -62.828125 40.625 -64.015625 C 35.1875 -65.210938 30.222656 -66.976562 25.734375 -69.3125 C 21.253906 -71.644531 17.664062 -74.960938 14.96875 -79.265625 C 12.28125 -83.566406 10.9375 -89.1875 10.9375 -96.125 C 10.9375 -108.5625 15.238281 -118.066406 23.84375 -124.640625 C 32.457031 -131.210938 44.414062 -134.5 59.71875 -134.5 C 74.070312 -134.5 85.550781 -130.460938 94.15625 -122.390625 C 102.757812 -114.328125 107.539062 -103.179688 108.5 -88.953125 L 90.03125 -88.953125 C 89.550781 -98.515625 86.5625 -105.925781 81.0625 -111.1875 C 75.5625 -116.445312 68.207031 -119.078125 59 -119.078125 C 49.914062 -119.078125 42.800781 -117.191406 37.65625 -113.421875 C 32.519531 -109.660156 29.953125 -104.316406 29.953125 -97.390625 C 29.953125 -92.242188 31.535156 -88.320312 34.703125 -85.625 C 37.867188 -82.9375 42.050781 -80.992188 47.25 -79.796875 C 52.457031 -78.609375 57.988281 -77.535156 63.84375 -76.578125 C 69.46875 -75.742188 75.148438 -74.664062 80.890625 -73.34375 C 86.628906 -72.03125 91.859375 -70.117188 96.578125 -67.609375 C 101.296875 -65.097656 105.085938 -61.539062 107.953125 -56.9375 C 110.828125 -52.332031 112.265625 -46.265625 112.265625 -38.734375 C 112.265625 -26.066406 107.628906 -16.144531 98.359375 -8.96875 C 89.097656 -1.789062 76.21875 1.796875 59.71875 1.796875 Z M 59.71875 1.796875 "/></g></g></g></g></g></svg>